# xmcd
# Track frame offsets:
# 150
# 10786
# 24397
# 37728
# 54495
# 66513
# 77406
# 92415
# 102946
# 117309
# 129823
# 147328
# 157452
# 168385
# 177694
# 187975
# 205626
# 219549
# 231342
# 241924
#
# Disc length: 3374 seconds
# Revision: 0
# Processed by: cddbd v1.5.1PL2 Copyright (c) Steve Scherf et al.
# Submitted via: VisiTrax 2.10.0.248 - For more info visit www.synapsa.com
#
DISCID=0b0d2c14
DTITLE=Willie Nelson and Leon Russell - One For The Road
DYEAR=1979
DGENRE=Country
TTITLE0=Detour
TTITLE1=I Saw The Light
TTITLE2=Heartbreak Hotel
TTITLE3=Let The Rest Of The World Go By
TTITLE4=Trouble In Mind
TTITLE5=Don't Fence Me In
TTITLE6=The Wild Side Of Life
TTITLE7=Ridin' Down The Canyon
TTITLE8=Sioux City Sue
TTITLE9=You Are My Sunshine
TTITLE10=Danny Boy
TTITLE11=Always
TTITLE12=Summertime
TTITLE13=Because Of You
TTITLE14=Am I Blue
TTITLE15=Tenderly
TTITLE16=Far Away Places
TTITLE17=That Lucky Old Sun
TTITLE18=Stormy Weather
TTITLE19=One For My Baby "And One More For The Road"
EXTD=
EXTT0=
EXTT1=
EXTT2=
EXTT3=
EXTT4=
EXTT5=
EXTT6=
EXTT7=
EXTT8=
EXTT9=
EXTT10=
EXTT11=
EXTT12=
EXTT13=
EXTT14=
EXTT15=
EXTT16=
EXTT17=
EXTT18=
EXTT19=
PLAYORDER=
